<svg height="512pt" viewBox="0 0 512.001 512" width="512pt" xmlns="http://www.w3.org/2000/svg"><path d="m512 256c0 141.386719-114.613281 256-256 256s-256-114.613281-256-256c0-141.382812 114.613281-256 256-256s256 114.617188 256 256zm0 0" fill="#006eff"/><g fill="#005adc"><path d="m256 0v512c141.386719 0 256-114.613281 256-256 0-141.382812-114.613281-256-256-256zm0 0"/><path d="m256 384.53125c68.863281 0 135.804688-13.542969 198.957031-40.257812 16.769531-7.089844 33.058594-15.027344 48.84375-23.773438 5.347657-20.609375 8.199219-42.21875 8.199219-64.5 0-29.667969-5.066406-58.152344-14.347656-84.652344-27.980469 22.757813-58.902344 41.378906-92.347656 55.527344-47.359376 20.03125-97.59375 30.1875-149.304688 30.1875s-101.945312-10.15625-149.300781-30.1875c-33.445313-14.148438-64.371094-32.769531-92.351563-55.527344-9.28125 26.5-14.347656 54.984375-14.347656 84.652344 0 22.28125 2.851562 43.890625 8.199219 64.5 15.785156 8.746094 32.074219 16.683594 48.839843 23.773438 63.15625 26.714843 130.097657 40.257812 198.960938 40.257812zm0 0"/><path d="m426.203125 64.796875c-45.234375-40.296875-104.855469-64.796875-170.203125-64.796875s-124.96875 24.5-170.203125 64.796875c45.234375 40.296875 104.855469 64.796875 170.203125 64.796875s124.96875-24.5 170.203125-64.796875zm0 0"/></g><path d="m497.652344 171.347656c-27.980469 22.757813-58.902344 41.378906-92.347656 55.527344-47.359376 20.03125-97.59375 30.1875-149.304688 30.1875v127.46875c68.867188 0 135.804688-13.542969 198.960938-40.257812 16.765624-7.089844 33.054687-15.027344 48.839843-23.773438 5.347657-20.609375 8.199219-42.21875 8.199219-64.5 0-29.667969-5.066406-58.152344-14.347656-84.652344zm0 0" fill="#0053bf"/><path d="m256 0v129.59375c65.347656 0 124.96875-24.5 170.203125-64.796875-45.234375-40.296875-104.855469-64.796875-170.203125-64.796875zm0 0" fill="#0053bf"/></svg>