<?xml version="1.0" encoding="iso-8859-1"?>
<!-- Generator: Adobe Illustrator 19.0.0, SVG Export Plug-In . SVG Version: 6.00 Build 0)  -->
<svg version="1.1" id="Capa_1" xmlns="http://www.w3.org/2000/svg" xmlns:xlink="http://www.w3.org/1999/xlink" x="0px" y="0px"
	 viewBox="0 0 512 512" style="enable-background:new 0 0 512 512;" xml:space="preserve">
<path style="fill:#FBC640;" d="M270.928,503.969c-66.235,0-128.505-25.793-175.34-72.629C48.753,384.505,22.959,322.235,22.959,256
	S48.753,127.495,95.588,80.66c46.835-46.836,109.105-72.629,175.34-72.629c90.855,0,174.336,49.606,217.867,129.459l0.938,1.72
	L274.943,263.218l208.603,120.446l-1.077,1.757c-21.781,35.528-52.401,65.243-88.549,85.936
	C356.649,492.692,314.119,503.969,270.928,503.969z M270.928,96.376c-15.223,0-27.608,12.385-27.608,27.608
	c0,15.222,12.384,27.608,27.608,27.608c15.223,0,27.608-12.385,27.608-27.608S286.151,96.376,270.928,96.376z"/>
<path style="fill:#FBDF97;" d="M270.928,155.608c-17.437,0-31.624-14.186-31.624-31.624s14.186-31.624,31.624-31.624
	s31.624,14.186,31.624,31.624S288.365,155.608,270.928,155.608z"/>
<path d="M89.908,437.02C138.26,485.372,202.547,512,270.928,512c44.589,0,88.499-11.644,126.983-33.674
	c37.314-21.359,68.921-52.034,91.405-88.707c1.416-2.309,1.838-5.092,1.172-7.717c-0.667-2.625-2.365-4.871-4.71-6.224
	L291.006,263.218l201.045-116.073c4.718-2.725,6.403-8.715,3.795-13.499C450.908,51.21,364.724,0,270.928,0
	C202.547,0,138.26,26.628,89.908,74.981S14.928,187.62,14.928,256S41.557,388.667,89.908,437.02z M270.928,20.078
	c83.171,0,159.849,43.695,202.426,114.677L265.908,254.524c-3.106,1.793-5.02,5.107-5.02,8.694c0,3.586,1.913,6.901,5.02,8.694
	l200.714,115.891c-44.009,65.388-116.416,104.119-195.694,104.119C140.839,491.922,35.006,386.087,35.006,256
	S140.84,20.078,270.928,20.078z"/>
<path d="M91.969,357.282c19.501,34.084,48.195,61.7,82.981,79.863c1.484,0.774,3.073,1.142,4.638,1.142
	c3.619,0,7.116-1.964,8.908-5.394c2.566-4.915,0.663-10.981-4.253-13.546c-31.375-16.382-57.257-41.292-74.847-72.035
	c-2.754-4.812-8.885-6.483-13.7-3.729C90.885,346.336,89.216,352.47,91.969,357.282z"/>
<path d="M270.928,163.639c21.865,0,39.655-17.789,39.655-39.655s-17.788-39.655-39.655-39.655s-39.655,17.789-39.655,39.655
	S249.062,163.639,270.928,163.639z M270.928,104.408c10.794,0,19.576,8.782,19.576,19.576s-8.782,19.576-19.576,19.576
	c-10.794,0-19.576-8.782-19.576-19.576S260.133,104.408,270.928,104.408z"/>
<path d="M208.35,451.095c12.919,0,12.941-20.078,0-20.078C195.431,431.017,195.41,451.095,208.35,451.095z"/>
<g>
</g>
<g>
</g>
<g>
</g>
<g>
</g>
<g>
</g>
<g>
</g>
<g>
</g>
<g>
</g>
<g>
</g>
<g>
</g>
<g>
</g>
<g>
</g>
<g>
</g>
<g>
</g>
<g>
</g>
</svg>
